<?xml version="1.0" standalone="no"?>
<!DOCTYPE svg PUBLIC "-//W3C//DTD SVG 20010904//EN"
 "http://www.w3.org/TR/2001/REC-SVG-20010904/DTD/svg10.dtd">
<svg version="1.0" xmlns="http://www.w3.org/2000/svg"
 width="528.000000pt" height="528.000000pt" viewBox="0 0 528.000000 528.000000"
 preserveAspectRatio="xMidYMid meet">
<metadata>
Created by potrace 1.11, written by Peter Selinger 2001-2013
</metadata>
<g transform="translate(0.000000,528.000000) scale(0.100000,-0.100000)"
fill="#000000" stroke="none">
<path d="M2607 5274 c-1 -1 -36 -4 -77 -7 -41 -3 -88 -8 -105 -12 -16 -4 -37
-8 -45 -10 -8 -2 -15 -4 -15 -5 0 -1 -8 -3 -17 -5 -117 -22 -303 -130 -399
-230 -57 -60 -124 -157 -156 -225 -42 -92 -82 -263 -88 -382 -2 -50 -31 -137
-45 -138 -3 0 -10 10 -16 23 -6 12 -36 65 -66 117 -30 52 -67 115 -80 140 -14
25 -38 68 -54 95 -78 138 -134 188 -228 206 -70 13 -140 -1 -201 -38 -86 -54
-135 -171 -114 -273 14 -69 15 -70 219 -420 93 -161 170 -296 170 -301 0 -5 5
-9 10 -9 6 0 10 -4 10 -10 0 -5 26 -54 58 -107 32 -54 61 -105 65 -113 4 -8
16 -28 26 -45 10 -16 43 -73 74 -125 l55 -95 -68 -31 c-186 -86 -330 -252
-436 -504 l-32 -74 -133 -2 c-78 0 -153 -7 -179 -14 -25 -7 -51 -14 -58 -16
-23 -4 -102 -75 -127 -113 -48 -73 -60 -174 -35 -281 6 -25 13 -55 15 -68 3
-12 7 -32 10 -45 3 -12 15 -71 26 -132 12 -60 23 -119 25 -130 2 -11 7 -33 9
-50 3 -16 13 -64 21 -105 9 -41 18 -86 20 -100 2 -14 9 -45 14 -70 6 -25 12
-54 13 -65 2 -11 7 -31 10 -45 5 -21 49 -241 63 -320 2 -14 10 -50 16 -80 6
-30 12 -64 13 -75 2 -18 10 -62 22 -120 2 -11 6 -31 9 -45 2 -14 13 -68 24
-120 10 -52 26 -132 34 -178 l16 -83 -30 -37 c-25 -32 -39 -68 -54 -142 -5
-25 31 -147 53 -178 11 -16 38 -38 58 -48 37 -18 99 -19 1698 -22 1190 -2
1673 0 1705 8 57 15 103 49 134 103 58 100 48 209 -27 290 -31 34 -34 41 -27
70 5 18 11 45 14 61 3 16 10 52 16 80 6 28 12 60 14 71 3 11 11 52 19 90 9 39
18 84 21 100 2 17 7 41 11 55 3 14 8 39 11 55 3 17 16 86 30 155 14 69 28 136
30 150 2 14 7 39 11 55 3 17 7 39 9 50 1 11 8 43 14 70 6 28 14 66 16 85 3 19
7 43 10 52 3 10 7 30 10 45 3 16 22 116 44 223 21 107 42 211 45 230 3 19 8
46 10 60 3 14 7 34 9 45 2 11 10 45 18 75 23 88 7 183 -44 262 -65 103 -155
140 -345 142 -67 1 -124 4 -126 6 -3 3 -19 41 -36 85 -55 136 -169 302 -249
362 -20 15 -46 36 -57 46 -40 37 -193 105 -275 123 -19 4 -37 8 -40 9 -40 11
-59 16 -77 18 -12 2 -25 6 -29 9 -3 4 -6 101 -6 216 l1 209 29 64 c105 230
122 292 103 381 -7 34 -20 72 -29 86 -11 17 -18 49 -19 89 -1 34 -8 94 -17
132 -9 39 -16 72 -16 75 0 7 93 -58 244 -168 137 -100 249 -157 356 -181 41
-9 84 -19 95 -21 42 -9 162 -6 205 6 85 23 130 71 154 163 13 48 13 63 0 110
l-14 56 30 32 c54 59 76 165 51 240 -13 41 -67 97 -102 106 -43 12 -112 8
-194 -11 -121 -27 -295 -29 -370 -4 -33 12 -67 26 -75 33 -22 19 -213 114
-252 126 -127 38 -226 29 -309 -27 l-49 -33 -83 59 c-77 56 -99 69 -179 104
-94 41 -244 76 -346 79 -40 2 -74 2 -75 1z"/>
</g>
</svg>
